<svg xmlns="http://www.w3.org/2000/svg" width="109" height="108"><g data-name="Эллипс 49" fill="none" stroke="#27debf" stroke-width="2"><ellipse cx="54.5" cy="54" rx="54.5" ry="54" stroke="none"/><ellipse cx="54.5" cy="54" rx="53.5" ry="53"/></g><g data-name="1237114" fill="#27debf"><path data-name="Контур 107" d="M32.733 72.192h12.87l-.837 1.673h-.319c-2.62 0-4.184 1.251-4.184 3.347a1.673 1.673 0 001.673 1.673h25.1a1.673 1.673 0 001.673-1.673c0-2.1-1.564-3.347-4.184-3.347h-.319l-.837-1.673h12.87a3.347 3.347 0 003.347-3.347V39.561a3.347 3.347 0 00-3.345-3.347h-9.2a.837.837 0 100 1.673h9.2a1.673 1.673 0 011.673 1.673v29.284a1.673 1.673 0 01-1.673 1.673H32.733a1.673 1.673 0 01-1.673-1.673V39.561a1.673 1.673 0 011.673-1.673h9.2a.837.837 0 100-1.673h-9.2a3.347 3.347 0 00-3.348 3.346v29.284a3.347 3.347 0 003.347 3.347zm34.3 5.02h-25.1c0-.414 0-1.673 2.51-1.673h20.08c2.51 0 2.51 1.259 2.51 1.673zm-5.538-5.02l.836 1.673h-15.7l.836-1.673zm0 0"/><path data-name="Контур 108" d="M73.73 63.828H35.243a.837.837 0 01-.837-.836V42.071a.837.837 0 01.837-.837h2.51a.837.837 0 100-1.673h-2.51a2.51 2.51 0 00-2.51 2.51v20.917a2.51 2.51 0 002.51 2.51H73.73a2.51 2.51 0 002.51-2.51V42.071a2.51 2.51 0 00-2.51-2.51h-2.51a.837.837 0 100 1.673h2.51a.837.837 0 01.837.837v20.917a.837.837 0 01-.837.84zm0 0"/><path data-name="Контур 109" d="M50.303 67.172a.837.837 0 000 1.673h8.363a.837.837 0 000-1.673zm0 0"/><path data-name="Контур 110" d="M65.244 33.548l-1.4-1.4a1.673 1.673 0 00-2.114-.2l-2.092 1.381a10.325 10.325 0 00-2.036-.83l-.493-2.467a1.673 1.673 0 00-1.634-1.348H53.5a1.673 1.673 0 00-1.641 1.345l-.506 2.463a10.325 10.325 0 00-2.029.845l-2.083-1.39a1.673 1.673 0 00-2.113.207l-1.4 1.4a1.679 1.679 0 00-.2 2.11l1.382 2.092a10.414 10.414 0 00-.83 2.036l-2.467.492a1.68 1.68 0 00-1.349 1.64V43.9a1.678 1.678 0 001.346 1.641l2.462.5a10.432 10.432 0 00.844 2.029l-1.386 2.085a1.679 1.679 0 00.208 2.114l1.4 1.4a1.673 1.673 0 002.113.208l2.092-1.381a10.348 10.348 0 002.036.83l.493 2.467a1.674 1.674 0 001.636 1.344h1.975a1.673 1.673 0 001.641-1.344l.506-2.464a10.3 10.3 0 002.029-.845l2.083 1.393a1.673 1.673 0 002.115-.208l1.4-1.4a1.68 1.68 0 00.207-2.114l-1.382-2.092a10.827 10.827 0 00.837-2.022l-.8-.238.8.225 2.467-.492a1.679 1.679 0 001.341-1.64V41.92a1.678 1.678 0 00-1.346-1.641l-2.462-.5a10.425 10.425 0 00-.844-2.029l1.393-2.084a1.672 1.672 0 00-.208-2.116zm-2.577 3.268a1.68 1.68 0 00-.072 1.726 9.093 9.093 0 01.7 1.709 1.673 1.673 0 001.273 1.176l2.465.493v1.976l-2.465.493a1.673 1.673 0 00-1.273 1.176 9.125 9.125 0 01-.7 1.709A1.674 1.674 0 0062.668 49l1.393 2.084-1.4 1.4-2.081-1.4a1.681 1.681 0 00-1.727-.074 9.1 9.1 0 01-1.709.705 1.676 1.676 0 00-1.171 1.272l-.5 2.466H53.5l-.494-2.467a1.679 1.679 0 00-1.177-1.273 9.083 9.083 0 01-1.708-.7 1.71 1.71 0 00-.809-.2 1.649 1.649 0 00-.92.278l-2.084 1.393-1.4-1.4 1.394-2.085a1.679 1.679 0 00.072-1.726 9.094 9.094 0 01-.7-1.709 1.673 1.673 0 00-1.273-1.176l-2.462-.493V41.92l2.465-.493a1.673 1.673 0 001.273-1.176 9.138 9.138 0 01.7-1.709 1.673 1.673 0 00-.073-1.726l-1.393-2.084 1.4-1.4 2.084 1.393a1.674 1.674 0 001.727.074 9.077 9.077 0 011.709-.705 1.677 1.677 0 001.175-1.273l.494-2.466h1.975l.494 2.467a1.679 1.679 0 001.177 1.273 9.083 9.083 0 011.708.7 1.673 1.673 0 001.727-.073l2.084-1.393 1.4 1.4zm0 0"/><path data-name="Контур 111" d="M54.487 36.214a6.693 6.693 0 106.693 6.693 6.693 6.693 0 00-6.693-6.693zm0 11.714a5.02 5.02 0 115.02-5.02 5.02 5.02 0 01-5.02 5.02zm0 0"/><path data-name="Контур 112" d="M55.323 42.908a.837.837 0 11-.837-.836.837.837 0 01.837.836zm0 0"/></g></svg>