<svg xmlns="http://www.w3.org/2000/svg" width="109" height="108"><g data-name="Эллипс 48" fill="none" stroke="#fff" stroke-width="2"><ellipse cx="54.5" cy="54" rx="54.5" ry="54" stroke="none"/><ellipse cx="54.5" cy="54" rx="53.5" ry="53"/></g><g data-name="035---Creative-Thinking" fill="#fff"><path d="M74.92 66.668a12.381 12.381 0 00-.022-4.7l4.22-10.183a.15.15 0 000-.02 17.3 17.3 0 012.962-5.143 1.374 1.374 0 00.34-1.258l-1.73-7.472a.9.9 0 00-.092-.223c-.007-.014-.01-.03-.018-.043s-.04-.044-.058-.068a.929.929 0 00-.13-.152.856.856 0 00-.1-.061.939.939 0 00-.143-.087.91.91 0 00-.216-.053c-.021 0-.04-.014-.061-.016a.921.921 0 00-.508.113c-.014.007-.03.01-.044.018h-.009l-6.505 4.06a1.375 1.375 0 00-.65 1.133 17.294 17.294 0 01-1.549 5.743v.01l-2.109 5.1a12.359 12.359 0 00-3.291-1.188 49.777 49.777 0 00.477-9.059 10.055 10.055 0 002.287-7.382c-.581-5.369-5.433-9.247-5.641-9.407a.921.921 0 00-1.46.961c.474 1.782.064 3.662-3.441 7.529a5.392 5.392 0 00-1.263 5.875 7.152 7.152 0 001.312 2.119 63.247 63.247 0 00-.519 4.084 46.139 46.139 0 00-.16 6.534 12.536 12.536 0 00-2.294 1.6L50.036 35.92c0-.019-.018-.033-.024-.051a.871.871 0 00-.064-.178l-4.564-8.429a2.127 2.127 0 00-4 .936l-.346 9.577a.952.952 0 00.023.205v.041l4.559 19.457a10.375 10.375 0 00-2.13.318l-5.012-12.111a1.862 1.862 0 00-2.4-.985l-7.669 3.173a1.848 1.848 0 00-1 2.407l6.8 16.407a7.366 7.366 0 00.38 14.722h40.54a7.371 7.371 0 10-.209-14.741zm-.943-23.848l3.862-2.41-1.367 3.3a.922.922 0 101.7.706l1.367-3.3 1.024 4.434a18.222 18.222 0 00-2.672 4.41 3.789 3.789 0 01-5.15-2.13 18.2 18.2 0 001.236-5.01zm-2.119 7.233a5.612 5.612 0 002.3 1.672 5.847 5.847 0 002.254.475 4.875 4.875 0 00.558-.034l-2.94 7.094a12.5 12.5 0 00-3.956-4.891zm-12.622-6.58l4.629.283c.029.861.018 1.75-.01 2.654a19.367 19.367 0 01-4.616-.223c-.116-.017-.229-.029-.345-.045.092-.868.2-1.747.34-2.669zm-.439-7.419c2.446-2.7 3.714-4.774 4.009-6.726a12.322 12.322 0 013.324 6.602 8.255 8.255 0 01-1.865 6q-2.73-.166-5.4-.332a3.843 3.843 0 01-.071-5.546zm-.07 11.925l.267.035a26.244 26.244 0 003.587.3c.381 0 .783-.03 1.186-.062a54.451 54.451 0 01-.4 3.7c-.228-.012-.451-.034-.679-.034a12.339 12.339 0 00-4.083.7 44.458 44.458 0 01.116-4.651zM51.6 58.753l-2.636-11.228a.921.921 0 00-1.794.42l2.369 10.106a10.435 10.435 0 00-2.008-.5l-4.044-17.257a4.366 4.366 0 001.8.392c.058 0 .12-.008.179-.011l.651 2.781a.921.921 0 101.794-.42l-.652-2.783a4.363 4.363 0 001.61-1.225l4.111 17.578a12.361 12.361 0 00-1.38 2.147zM45.971 38.76a3.059 3.059 0 01-3.077-1.23l.117-3.245a5.422 5.422 0 00.972.092 4.105 4.105 0 00.936-.1 4.693 4.693 0 001.708-.849l1.551 2.863a3.056 3.056 0 01-2.208 2.476zm-2.524-10.763a.287.287 0 01.317.142l1.975 3.653a3.144 3.144 0 01-1.244.691 3.132 3.132 0 01-1.42-.067l.15-4.151a.286.286 0 01.222-.268zM36.78 46.399l.7 1.7-3.405 1.412a.921.921 0 00.355 1.771.935.935 0 00.353-.07l3.409-1.412.7 1.7-1.705.707a.921.921 0 00.354 1.773.937.937 0 00.352-.07l1.705-.707.7 1.7-3.403 1.418a.921.921 0 00.354 1.773.933.933 0 00.352-.07l3.409-1.411.745 1.8a10.7 10.7 0 00-5.965 7.261l-6.678-16.1zm38.35 33.167H34.591a5.528 5.528 0 110-11.056 5.427 5.427 0 011.576.228.921.921 0 001.188-.865 8.752 8.752 0 0114-6.826.921.921 0 001.412-.415 10.6 10.6 0 0120.05 6.84.921.921 0 001.078 1.172 5.752 5.752 0 011.23-.135 5.528 5.528 0 010 11.056z"/><path data-name="Shape" d="M62.862 40.595a.921.921 0 00.737-.364 6.91 6.91 0 001.225-5.425.921.921 0 10-1.78.474 5.118 5.118 0 01-.914 3.838.921.921 0 00.737 1.474zM61.65 68.511a4.529 4.529 0 00-1.976.461 5.528 5.528 0 00-9.549 5.427.921.921 0 00.848.56.911.911 0 00.361-.074.921.921 0 00.486-1.209 3.753 3.753 0 01-.3-1.48 3.685 3.685 0 013.682-3.685 3.648 3.648 0 013.331 2.119 1 1 0 00.064.087.936.936 0 00.049.092c.017.02.041.029.059.049a1.294 1.294 0 00.29.212.917.917 0 00.166.052.847.847 0 00.173.027 1.132 1.132 0 00.352-.059.7.7 0 00.073-.018.835.835 0 00.086-.064.957.957 0 00.1-.05 2.717 2.717 0 011.71-.6 2.764 2.764 0 012.501 1.607.922.922 0 101.677-.765 4.607 4.607 0 00-4.183-2.689zm-18.137-6.402a5 5 0 00-3.394 4.559.921.921 0 101.843 0 3.167 3.167 0 012.139-2.813.923.923 0 00-.588-1.75zm12.969-.997a.9.9 0 00.224.028.921.921 0 00.893-.7 3.93 3.93 0 013.718-2.988.921.921 0 000-1.843 5.739 5.739 0 00-5.5 4.383.921.921 0 00.665 1.12z"/></g></svg>