<svg xmlns="http://www.w3.org/2000/svg" width="109" height="108"><path data-name="Контур 120" d="M60.36 62.489a.935.935 0 10.935.935.936.936 0 00-.935-.935zm0 0" fill="#0fbf61"/><path data-name="Контур 121" d="M74.016 30.125H35.479a4.682 4.682 0 00-4.677 4.677v28.623a4.682 4.682 0 004.677 4.677h14.592v4.3h-.935a4.678 4.678 0 00-4.677 4.677.935.935 0 00.935.935h18.708a.935.935 0 00.935-.935 4.682 4.682 0 00-4.677-4.677h-.935v-4.3h14.591a4.682 4.682 0 004.677-4.677V34.802a4.682 4.682 0 00-4.677-4.677zm-38.537 1.871h38.537a2.809 2.809 0 012.806 2.806v23.946h-4.3V37.234a.935.935 0 00-.935-.935h-7.485a.935.935 0 00-.935.935v21.514h-4.683a86.807 86.807 0 00-.075-2.846 60.165 60.165 0 00-.731-7.484 4.677 4.677 0 001.277-6.1l-3.242-5.617a.935.935 0 00-1.62 0l-3.243 5.616a4.676 4.676 0 001.029 5.9 59.377 59.377 0 00-.788 7.68 82.867 82.867 0 00-.079 2.848h-4.683V44.717a.93.93 0 00-.092-.4s0-.01-.006-.015l-3.742-7.486a.936.936 0 00-1.673 0l-3.742 7.483-.006.015a.93.93 0 00-.093.4v14.034h-4.3V34.802a2.809 2.809 0 012.804-2.806zm29.558 26.752V38.169h5.612v1.871h-.935a.935.935 0 000 1.871h.935v2.806h-.935a.935.935 0 000 1.871h.935v2.806h-.935a.935.935 0 000 1.871h.935v3.742h-.935a.935.935 0 000 1.871h.935v1.871zm-10.135-9.423a4.684 4.684 0 001.009-.112c.174 1.113.429 3.081.579 5.789h-3.48c.158-2.706.425-4.705.61-5.856a4.683 4.683 0 001.282.179zm0-1.871a2.81 2.81 0 01-2.433-4.206l2.433-4.208 2.432 4.212a2.808 2.808 0 01-2.432 4.206zm-1.979 9.418h3.65c.02.615.033 1.24.04 1.871h-3.731c.007-.627.021-1.252.042-1.871zm-10.335 1.876v-13.1h1.871v13.1zm-3.742 0v-13.1h1.871v13.1zm.578-14.966l2.228-4.457 2.228 4.456zm23.578 32.364H46.488a2.812 2.812 0 012.647-1.871H60.36a2.811 2.811 0 012.642 1.871zm-5.452-3.742h-5.609v-4.3h5.612zm16.463-6.173H35.479a2.809 2.809 0 01-2.806-2.806v-2.807h44.149v2.807a2.809 2.809 0 01-2.806 2.806zm0 0" fill="#27debf"/><path data-name="Контур 122" d="M56.619 62.489h-5.612a.935.935 0 100 1.871h5.612a.935.935 0 100-1.871zm0 0" fill="#0fbf61"/><g data-name="Эллипс 40" fill="none" stroke="#27debf" stroke-width="2"><ellipse cx="54.5" cy="54" rx="54.5" ry="54" stroke="none"/><ellipse cx="54.5" cy="54" rx="53.5" ry="53"/></g></svg>